<svg width="206" height="231" viewBox="0 0 206 231" fill="none" xmlns="http://www.w3.org/2000/svg"><path d="M143.143 84c0 12.15-9.85 22-22 22-12.151 0-22-9.85-22-22s9.849-22 22-22c12.15 0 22 9.85 22 22z" fill="#FFC131"/><circle cx="84.143" cy="147" transform="rotate(180 84.143 147)" fill="#24C8DB" r="22"/><path fill-rule="evenodd" clip-rule="evenodd" d="M166.738 154.548a84.006 84.006 0 0 1-28.981 11.793A58.93 58.93 0 0 0 141 147c0-2.457-.15-4.879-.442-7.257a59.035 59.035 0 0 0 38.944-64.594 59.023 59.023 0 0 0-42.46-47.994 59.027 59.027 0 0 0-63.866 22.444 97.999 97.999 0 0 0-32.213 9.357 84 84 0 1 1 125.775 95.592zM41.963 74.275l20.593 2.53a59.019 59.019 0 0 1 2.658-11.678 84.019 84.019 0 0 0-23.25 9.148z" fill="#FFC131"/><path fill-rule="evenodd" clip-rule="evenodd" d="M38.404 76.452a83.998 83.998 0 0 1 29.213-11.839A58.88 58.88 0 0 0 64 85c0 2.143.114 4.26.337 6.344a59.02 59.02 0 0 0-34.155 31.412 59.025 59.025 0 0 0 9.609 63.356 59.027 59.027 0 0 0 92.188-4.729 97.99 97.99 0 0 0 32.226-9.421 83.992 83.992 0 0 1-55.298 55.26A83.995 83.995 0 0 1 .95 159.596a83.999 83.999 0 0 1 37.454-83.144zm124.658 80.259-.324.186.324-.186z" fill="#24C8DB"/></svg>